<svg width="370" height="370" viewBox="0 0 370 370" fill="none" xmlns="http://www.w3.org/2000/svg">
<g clip-path="url(#clip0_49_178)">
<path opacity="0.9" d="M185.215 366.421C185.215 366.421 185.215 285.291 185.215 185.211C185.215 85.132 185.215 4.00146 185.215 4.00146" stroke="url(#paint0_linear_49_178)"/>
<path opacity="0.8" d="M185.215 366.421C210.647 366.421 231.264 285.291 231.264 185.211C231.264 85.132 210.647 4.00146 185.215 4.00146C159.783 4.00146 139.166 85.132 139.166 185.211C139.166 285.291 159.783 366.421 185.215 366.421Z" stroke="url(#paint1_linear_49_178)"/>
<path opacity="0.7" d="M185.215 366.421C236.08 366.421 277.314 285.291 277.314 185.211C277.314 85.132 236.08 4.00146 185.215 4.00146C134.35 4.00146 93.1167 85.132 93.1167 185.211C93.1167 285.291 134.35 366.421 185.215 366.421Z" stroke="url(#paint2_linear_49_178)"/>
<path opacity="0.6" d="M185.215 366.421C257.273 366.421 315.688 285.291 315.688 185.211C315.688 85.132 257.273 4.00146 185.215 4.00146C113.157 4.00146 54.7427 85.132 54.7427 185.211C54.7427 285.291 113.157 366.421 185.215 366.421Z" stroke="url(#paint3_linear_49_178)"/>
<path opacity="0.5" d="M185.215 366.421C274.228 366.421 346.387 285.291 346.387 185.211C346.387 85.132 274.228 4.00146 185.215 4.00146C96.2018 4.00146 24.043 85.132 24.043 185.211C24.043 285.291 96.2018 366.421 185.215 366.421Z" stroke="url(#paint4_linear_49_178)"/>
<path opacity="0.8" d="M185.216 366.421C286.944 366.421 369.413 285.291 369.413 185.211C369.413 85.132 286.944 4.00146 185.216 4.00146C83.4859 4.00146 1.01855 85.132 1.01855 185.211C1.01855 285.291 83.4859 366.421 185.216 366.421Z" stroke="url(#paint5_linear_49_178)"/>
<path opacity="0.7" d="M93.1168 342.144C115.142 354.654 174.23 294.534 225.095 207.863C275.959 121.192 299.338 40.7896 277.314 28.2796C255.289 15.7697 196.199 75.889 145.336 162.561C94.4707 249.232 71.0916 329.634 93.1168 342.144Z" stroke="url(#paint6_linear_49_178)"/>
<path opacity="0.6" d="M93.1173 342.144C137.167 367.164 214.11 317.186 264.975 230.514C315.84 143.843 321.363 53.2989 277.314 28.2794C233.264 3.25952 156.32 53.2379 105.456 139.909C54.5916 226.581 49.067 317.124 93.1173 342.144Z" stroke="url(#paint7_linear_49_178)"/>
<path opacity="0.5" d="M93.1173 342.144C155.521 377.589 247.343 336.062 298.208 249.39C349.073 162.719 339.718 63.7238 277.314 28.2793C214.909 -7.16545 123.087 34.3618 72.2224 121.033C21.3583 207.705 30.713 306.699 93.1173 342.144Z" stroke="url(#paint8_linear_49_178)"/>
<path opacity="0.4" d="M93.1172 342.144C170.204 385.929 273.93 351.162 324.795 264.491C375.659 177.82 354.401 72.0642 277.314 28.2795C200.226 -15.5053 96.501 19.2612 45.6363 105.932C-5.22824 192.604 16.0296 298.359 93.1172 342.144Z" stroke="url(#paint9_linear_49_178)"/>
<path opacity="0.7" d="M25.6964 275.815C38.4125 297.483 120.14 274.483 208.24 224.444C296.34 174.404 357.451 116.273 344.734 94.6059C332.018 72.9379 250.291 95.9379 162.19 145.977C74.0908 196.017 12.9802 254.148 25.6964 275.815Z" stroke="url(#paint10_linear_49_178)"/>
<path opacity="0.6" d="M25.6962 275.816C51.1284 319.152 143.165 313.717 231.264 263.677C319.364 213.638 370.167 137.942 344.735 94.6058C319.302 51.2708 227.266 56.7048 139.166 106.745C51.0665 156.785 0.26403 232.48 25.6962 275.816Z" stroke="url(#paint11_linear_49_178)"/>
<path opacity="0.5" d="M25.696 275.816C61.725 337.208 162.352 346.411 250.451 296.371C338.551 246.332 380.764 155.998 344.734 94.6058C308.705 33.2138 208.078 24.0108 119.979 74.0508C31.8788 124.09 -10.333 214.424 25.696 275.816Z" stroke="url(#paint12_linear_49_178)"/>
<path opacity="0.4" d="M25.6959 275.816C70.2026 351.653 177.701 372.567 265.802 322.527C353.901 272.487 389.24 170.444 344.735 94.6058C300.228 18.7687 192.729 -2.14452 104.629 47.8952C16.529 97.9348 -18.8105 199.979 25.6959 275.816Z" stroke="url(#paint13_linear_49_178)"/>
<path opacity="0.7" d="M1.01855 185.212C1.01855 210.231 83.4861 230.514 185.216 230.514C286.944 230.514 369.412 210.231 369.412 185.212C369.412 160.192 286.944 139.909 185.216 139.909C83.4861 139.909 1.01855 160.192 1.01855 185.212Z" stroke="url(#paint14_linear_49_178)"/>
<path opacity="0.6" d="M1.01855 185.211C1.01855 235.251 83.4861 275.816 185.216 275.816C286.944 275.816 369.412 235.251 369.412 185.211C369.412 135.172 286.944 94.606 185.216 94.606C83.4861 94.606 1.01855 135.172 1.01855 185.211Z" stroke="url(#paint15_linear_49_178)"/>
<path opacity="0.5" d="M1.01855 185.211C1.01855 256.101 83.4861 313.568 185.216 313.568C286.944 313.568 369.412 256.101 369.412 185.211C369.412 114.322 286.944 56.854 185.216 56.854C83.4861 56.854 1.01855 114.322 1.01855 185.211Z" stroke="url(#paint16_linear_49_178)"/>
<path opacity="0.4" d="M1.01855 185.211C1.01855 272.781 83.4861 343.77 185.216 343.77C286.944 343.77 369.412 272.781 369.412 185.211C369.412 97.642 286.944 26.6528 185.216 26.6528C83.4861 26.6528 1.01855 97.642 1.01855 185.211Z" stroke="url(#paint17_linear_49_178)"/>
<path opacity="0.7" d="M25.6964 94.6059C12.9802 116.274 74.0905 174.405 162.191 224.444C250.291 274.484 332.018 297.484 344.734 275.816C357.451 254.148 296.34 196.018 208.24 145.978C120.14 95.9379 38.4125 72.9379 25.6964 94.6059Z" stroke="url(#paint18_linear_49_178)"/>
<path opacity="0.6" d="M25.6962 94.606C0.263986 137.942 51.0664 213.638 139.166 263.677C227.266 313.717 319.302 319.152 344.734 275.816C370.167 232.481 319.364 156.785 231.264 106.745C143.165 56.706 51.1284 51.271 25.6962 94.606Z" stroke="url(#paint19_linear_49_178)"/>
<path opacity="0.5" d="M25.696 94.6061C-10.333 155.999 31.8788 246.332 119.979 296.372C208.078 346.411 308.705 337.208 344.734 275.816C380.764 214.424 338.551 124.091 250.451 74.0511C162.352 24.0113 61.725 33.2143 25.696 94.6061Z" stroke="url(#paint20_linear_49_178)"/>
<path opacity="0.4" d="M25.6959 94.6061C-18.8105 170.444 16.5289 272.487 104.63 322.527C192.729 372.567 300.227 351.654 344.734 275.816C389.241 199.979 353.901 97.9351 265.801 47.8957C177.701 -2.14403 70.2021 18.7692 25.6959 94.6061Z" stroke="url(#paint21_linear_49_178)"/>
<path opacity="0.7" d="M93.1168 28.2796C71.0916 40.7896 94.4707 121.192 145.336 207.863C196.199 294.535 255.289 354.654 277.314 342.144C299.339 329.634 275.96 249.232 225.095 162.561C174.23 75.8898 115.142 15.7697 93.1168 28.2796Z" stroke="url(#paint22_linear_49_178)"/>
<path opacity="0.6" d="M93.1173 28.2799C49.067 53.3002 54.5916 143.843 105.456 230.514C156.32 317.186 233.264 367.164 277.314 342.144C321.363 317.124 315.84 226.581 264.975 139.91C214.11 53.2382 137.166 3.26005 93.1173 28.2799Z" stroke="url(#paint23_linear_49_178)"/>
<path opacity="0.5" d="M93.1172 28.2797C30.713 63.7251 21.3583 162.719 72.2224 249.39C123.087 336.062 214.91 377.589 277.314 342.144C339.718 306.699 349.073 207.705 298.208 121.034C247.343 34.3622 155.521 -7.16492 93.1172 28.2797Z" stroke="url(#paint24_linear_49_178)"/>
<path opacity="0.4" d="M93.1173 28.28C16.0296 72.065 -5.22825 177.82 45.6363 264.492C96.5011 351.163 200.226 385.929 277.314 342.145C354.401 298.36 375.659 192.604 324.794 105.933C273.93 19.2617 170.204 -15.5048 93.1173 28.28Z" stroke="url(#paint25_linear_49_178)"/>
<path opacity="0.9" d="M185.216 207.863C286.944 207.863 369.413 197.721 369.413 185.211C369.413 172.701 286.944 162.56 185.216 162.56C83.4859 162.56 1.01855 172.701 1.01855 185.211C1.01855 197.721 83.4859 207.863 185.216 207.863Z" stroke="url(#paint26_linear_49_178)"/>
<path opacity="0.8" d="M185.216 158.03C278.467 158.03 354.063 149.917 354.063 139.909C354.063 129.901 278.467 121.788 185.216 121.788C91.9645 121.788 16.3687 129.901 16.3687 139.909C16.3687 149.917 91.9645 158.03 185.216 158.03Z" stroke="url(#paint27_linear_49_178)"/>
<path opacity="0.7" d="M185.215 108.197C257.273 108.197 315.688 102.112 315.688 94.6061C315.688 87.1001 257.273 81.0161 185.215 81.0161C113.157 81.0161 54.7427 87.1001 54.7427 94.6061C54.7427 102.112 113.157 108.197 185.215 108.197Z" stroke="url(#paint28_linear_49_178)"/>
<path opacity="0.6" d="M185.215 58.365C227.602 58.365 261.964 54.308 261.964 49.304C261.964 44.3002 227.602 40.2437 185.215 40.2437C142.828 40.2437 108.467 44.3002 108.467 49.304C108.467 54.308 142.828 58.365 185.215 58.365Z" stroke="url(#paint29_linear_49_178)"/>
<path opacity="0.5" d="M185.215 23.6328C202.17 23.6328 215.915 21.6045 215.915 19.1025C215.915 16.6005 202.17 14.5723 185.215 14.5723C168.261 14.5723 154.516 16.6005 154.516 19.1025C154.516 21.6045 168.261 23.6328 185.215 23.6328Z" stroke="url(#paint30_linear_49_178)"/>
<path opacity="0.8" d="M185.216 248.635C278.467 248.635 354.063 240.522 354.063 230.514C354.063 220.506 278.467 212.393 185.216 212.393C91.9645 212.393 16.3687 220.506 16.3687 230.514C16.3687 240.522 91.9645 248.635 185.216 248.635Z" stroke="url(#paint31_linear_49_178)"/>
<path opacity="0.7" d="M185.215 289.407C257.273 289.407 315.688 283.322 315.688 275.816C315.688 268.31 257.273 262.226 185.215 262.226C113.157 262.226 54.7427 268.31 54.7427 275.816C54.7427 283.322 113.157 289.407 185.215 289.407Z" stroke="url(#paint32_linear_49_178)"/>
<path opacity="0.6" d="M185.215 330.179C227.602 330.179 261.964 326.123 261.964 321.119C261.964 316.115 227.602 312.058 185.215 312.058C142.828 312.058 108.467 316.115 108.467 321.119C108.467 326.123 142.828 330.179 185.215 330.179Z" stroke="url(#paint33_linear_49_178)"/>
<path opacity="0.5" d="M185.215 355.851C202.17 355.851 215.915 353.822 215.915 351.32C215.915 348.818 202.17 346.79 185.215 346.79C168.261 346.79 154.516 348.818 154.516 351.32C154.516 353.822 168.261 355.851 185.215 355.851Z" stroke="url(#paint34_linear_49_178)"/>
<path opacity="0.8" d="M185.215 7.02185C186.911 7.02185 188.285 5.66964 188.285 4.00164C188.285 2.33364 186.911 0.981445 185.215 0.981445C183.52 0.981445 182.145 2.33364 182.145 4.00164C182.145 5.66964 183.52 7.02185 185.215 7.02185Z" fill="url(#paint35_linear_49_178)"/>
<path opacity="0.8" d="M185.215 369.441C186.911 369.441 188.285 368.089 188.285 366.421C188.285 364.753 186.911 363.401 185.215 363.401C183.52 363.401 182.145 364.753 182.145 366.421C182.145 368.089 183.52 369.441 185.215 369.441Z" fill="url(#paint36_linear_49_178)"/>
</g>
<defs>
<linearGradient id="paint0_linear_49_178" x1="nan" y1="nan" x2="nan" y2="nan" gradientUnits="userSpaceOnUse">
<stop stop-color="#FF4800"/>
<stop offset="0.25" stop-color="#FF6B2B"/>
<stop offset="0.5" stop-color="#FF8C42"/>
<stop offset="0.75" stop-color="#FFAD5A"/>
<stop offset="1" stop-color="#FFC971"/>
</linearGradient>
<linearGradient id="paint1_linear_49_178" x1="139.166" y1="4.00146" x2="17441.5" y2="4400.89" gradientUnits="userSpaceOnUse">
<stop stop-color="#FF4800"/>
<stop offset="0.25" stop-color="#FF6B2B"/>
<stop offset="0.5" stop-color="#FF8C42"/>
<stop offset="0.75" stop-color="#FFAD5A"/>
<stop offset="1" stop-color="#FFC971"/>
</linearGradient>
<linearGradient id="paint2_linear_49_178" x1="93.1167" y1="4.00146" x2="29370" y2="14883.7" gradientUnits="userSpaceOnUse">
<stop stop-color="#FF4800"/>
<stop offset="0.25" stop-color="#FF6B2B"/>
<stop offset="0.5" stop-color="#FF8C42"/>
<stop offset="0.75" stop-color="#FFAD5A"/>
<stop offset="1" stop-color="#FFC971"/>
</linearGradient>
<linearGradient id="paint3_linear_49_178" x1="54.7427" y1="4.00146" x2="34425.5" y2="24751.3" gradientUnits="userSpaceOnUse">
<stop stop-color="#FF4800"/>
<stop offset="0.25" stop-color="#FF6B2B"/>
<stop offset="0.5" stop-color="#FF8C42"/>
<stop offset="0.75" stop-color="#FFAD5A"/>
<stop offset="1" stop-color="#FFC971"/>
</linearGradient>
<linearGradient id="paint4_linear_49_178" x1="24.043" y1="4.00146" x2="36018.6" y2="32018.4" gradientUnits="userSpaceOnUse">
<stop stop-color="#FF4800"/>
<stop offset="0.25" stop-color="#FF6B2B"/>
<stop offset="0.5" stop-color="#FF8C42"/>
<stop offset="0.75" stop-color="#FFAD5A"/>
<stop offset="1" stop-color="#FFC971"/>
</linearGradient>
<linearGradient id="paint5_linear_49_178" x1="1.01855" y1="4.00146" x2="36238.2" y2="36838.5" gradientUnits="userSpaceOnUse">
<stop stop-color="#FF4800"/>
<stop offset="0.25" stop-color="#FF6B2B"/>
<stop offset="0.5" stop-color="#FF8C42"/>
<stop offset="0.75" stop-color="#FFAD5A"/>
<stop offset="1" stop-color="#FFC971"/>
</linearGradient>
<linearGradient id="paint6_linear_49_178" x1="237.433" y1="5.62883" x2="12880.9" y2="12432.3" gradientUnits="userSpaceOnUse">
<stop stop-color="#FF4800"/>
<stop offset="0.25" stop-color="#FF6B2B"/>
<stop offset="0.5" stop-color="#FF8C42"/>
<stop offset="0.75" stop-color="#FFAD5A"/>
<stop offset="1" stop-color="#FFC971"/>
</linearGradient>
<linearGradient id="paint7_linear_49_178" x1="197.555" y1="-17.0228" x2="17942" y2="27301.1" gradientUnits="userSpaceOnUse">
<stop stop-color="#FF4800"/>
<stop offset="0.25" stop-color="#FF6B2B"/>
<stop offset="0.5" stop-color="#FF8C42"/>
<stop offset="0.75" stop-color="#FFAD5A"/>
<stop offset="1" stop-color="#FFC971"/>
</linearGradient>
<linearGradient id="paint8_linear_49_178" x1="164.32" y1="-35.8987" x2="17477.7" y2="38246.2" gradientUnits="userSpaceOnUse">
<stop stop-color="#FF4800"/>
<stop offset="0.25" stop-color="#FF6B2B"/>
<stop offset="0.5" stop-color="#FF8C42"/>
<stop offset="0.75" stop-color="#FFAD5A"/>
<stop offset="1" stop-color="#FFC971"/>
</linearGradient>
<linearGradient id="paint9_linear_49_178" x1="137.734" y1="-50.9996" x2="15332.2" y2="45281.4" gradientUnits="userSpaceOnUse">
<stop stop-color="#FF4800"/>
<stop offset="0.25" stop-color="#FF6B2B"/>
<stop offset="0.5" stop-color="#FF8C42"/>
<stop offset="0.75" stop-color="#FFAD5A"/>
<stop offset="1" stop-color="#FFC971"/>
</linearGradient>
<linearGradient id="paint10_linear_49_178" x1="321.71" y1="55.3727" x2="5089.9" y2="16998.5" gradientUnits="userSpaceOnUse">
<stop stop-color="#FF4800"/>
<stop offset="0.25" stop-color="#FF6B2B"/>
<stop offset="0.5" stop-color="#FF8C42"/>
<stop offset="0.75" stop-color="#FFAD5A"/>
<stop offset="1" stop-color="#FFC971"/>
</linearGradient>
<linearGradient id="paint11_linear_49_178" x1="298.684" y1="16.1401" x2="2209.61" y2="32377.4" gradientUnits="userSpaceOnUse">
<stop stop-color="#FF4800"/>
<stop offset="0.25" stop-color="#FF6B2B"/>
<stop offset="0.5" stop-color="#FF8C42"/>
<stop offset="0.75" stop-color="#FFAD5A"/>
<stop offset="1" stop-color="#FFC971"/>
</linearGradient>
<linearGradient id="paint12_linear_49_178" x1="279.497" y1="-16.5544" x2="-3536.87" y2="41712" gradientUnits="userSpaceOnUse">
<stop stop-color="#FF4800"/>
<stop offset="0.25" stop-color="#FF6B2B"/>
<stop offset="0.5" stop-color="#FF8C42"/>
<stop offset="0.75" stop-color="#FFAD5A"/>
<stop offset="1" stop-color="#FFC971"/>
</linearGradient>
<linearGradient id="paint13_linear_49_178" x1="264.148" y1="-42.7097" x2="-8856.23" y2="46838.3" gradientUnits="userSpaceOnUse">
<stop stop-color="#FF4800"/>
<stop offset="0.25" stop-color="#FF6B2B"/>
<stop offset="0.5" stop-color="#FF8C42"/>
<stop offset="0.75" stop-color="#FFAD5A"/>
<stop offset="1" stop-color="#FFC971"/>
</linearGradient>
<linearGradient id="paint14_linear_49_178" x1="369.412" y1="139.909" x2="-3833.16" y2="17227.2" gradientUnits="userSpaceOnUse">
<stop stop-color="#FF4800"/>
<stop offset="0.25" stop-color="#FF6B2B"/>
<stop offset="0.5" stop-color="#FF8C42"/>
<stop offset="0.75" stop-color="#FFAD5A"/>
<stop offset="1" stop-color="#FFC971"/>
</linearGradient>
<linearGradient id="paint15_linear_49_178" x1="369.412" y1="94.606" x2="-13984.7" y2="29275.9" gradientUnits="userSpaceOnUse">
<stop stop-color="#FF4800"/>
<stop offset="0.25" stop-color="#FF6B2B"/>
<stop offset="0.5" stop-color="#FF8C42"/>
<stop offset="0.75" stop-color="#FFAD5A"/>
<stop offset="1" stop-color="#FFC971"/>
</linearGradient>
<linearGradient id="paint16_linear_49_178" x1="369.411" y1="56.8535" x2="-23713.8" y2="34617.3" gradientUnits="userSpaceOnUse">
<stop stop-color="#FF4800"/>
<stop offset="0.25" stop-color="#FF6B2B"/>
<stop offset="0.5" stop-color="#FF8C42"/>
<stop offset="0.75" stop-color="#FFAD5A"/>
<stop offset="1" stop-color="#FFC971"/>
</linearGradient>
<linearGradient id="paint17_linear_49_178" x1="369.413" y1="26.6536" x2="-30989.5" y2="36456.1" gradientUnits="userSpaceOnUse">
<stop stop-color="#FF4800"/>
<stop offset="0.25" stop-color="#FF6B2B"/>
<stop offset="0.5" stop-color="#FF8C42"/>
<stop offset="0.75" stop-color="#FFAD5A"/>
<stop offset="1" stop-color="#FFC971"/>
</linearGradient>
<linearGradient id="paint18_linear_49_178" x1="367.759" y1="236.583" x2="-11843.9" y2="13074.3" gradientUnits="userSpaceOnUse">
<stop stop-color="#FF4800"/>
<stop offset="0.25" stop-color="#FF6B2B"/>
<stop offset="0.5" stop-color="#FF8C42"/>
<stop offset="0.75" stop-color="#FFAD5A"/>
<stop offset="1" stop-color="#FFC971"/>
</linearGradient>
<linearGradient id="paint19_linear_49_178" x1="390.783" y1="197.35" x2="-26831.8" y2="18467.4" gradientUnits="userSpaceOnUse">
<stop stop-color="#FF4800"/>
<stop offset="0.25" stop-color="#FF6B2B"/>
<stop offset="0.5" stop-color="#FF8C42"/>
<stop offset="0.75" stop-color="#FFAD5A"/>
<stop offset="1" stop-color="#FFC971"/>
</linearGradient>
<linearGradient id="paint20_linear_49_178" x1="409.97" y1="164.656" x2="-38061.5" y2="18142" gradientUnits="userSpaceOnUse">
<stop stop-color="#FF4800"/>
<stop offset="0.25" stop-color="#FF6B2B"/>
<stop offset="0.5" stop-color="#FF8C42"/>
<stop offset="0.75" stop-color="#FFAD5A"/>
<stop offset="1" stop-color="#FFC971"/>
</linearGradient>
<linearGradient id="paint21_linear_49_178" x1="425.32" y1="138.501" x2="-45341.9" y2="15988.6" gradientUnits="userSpaceOnUse">
<stop stop-color="#FF4800"/>
<stop offset="0.25" stop-color="#FF6B2B"/>
<stop offset="0.5" stop-color="#FF8C42"/>
<stop offset="0.75" stop-color="#FFAD5A"/>
<stop offset="1" stop-color="#FFC971"/>
</linearGradient>
<linearGradient id="paint22_linear_49_178" x1="317.194" y1="319.492" x2="-16820.3" y2="5302.67" gradientUnits="userSpaceOnUse">
<stop stop-color="#FF4800"/>
<stop offset="0.25" stop-color="#FF6B2B"/>
<stop offset="0.5" stop-color="#FF8C42"/>
<stop offset="0.75" stop-color="#FFAD5A"/>
<stop offset="1" stop-color="#FFC971"/>
</linearGradient>
<linearGradient id="paint23_linear_49_178" x1="357.073" y1="296.842" x2="-32530" y2="2303.36" gradientUnits="userSpaceOnUse">
<stop stop-color="#FF4800"/>
<stop offset="0.25" stop-color="#FF6B2B"/>
<stop offset="0.5" stop-color="#FF8C42"/>
<stop offset="0.75" stop-color="#FFAD5A"/>
<stop offset="1" stop-color="#FFC971"/>
</linearGradient>
<linearGradient id="paint24_linear_49_178" x1="390.306" y1="277.965" x2="-42002.3" y2="-3728.01" gradientUnits="userSpaceOnUse">
<stop stop-color="#FF4800"/>
<stop offset="0.25" stop-color="#FF6B2B"/>
<stop offset="0.5" stop-color="#FF8C42"/>
<stop offset="0.75" stop-color="#FFAD5A"/>
<stop offset="1" stop-color="#FFC971"/>
</linearGradient>
<linearGradient id="paint25_linear_49_178" x1="416.892" y1="262.865" x2="-47119.7" y2="-9292.45" gradientUnits="userSpaceOnUse">
<stop stop-color="#FF4800"/>
<stop offset="0.25" stop-color="#FF6B2B"/>
<stop offset="0.5" stop-color="#FF8C42"/>
<stop offset="0.75" stop-color="#FFAD5A"/>
<stop offset="1" stop-color="#FFC971"/>
</linearGradient>
<linearGradient id="paint26_linear_49_178" x1="1.01855" y1="162.56" x2="1098.62" y2="9088.08" gradientUnits="userSpaceOnUse">
<stop stop-color="#FF4800"/>
<stop offset="0.25" stop-color="#FF6B2B"/>
<stop offset="0.5" stop-color="#FF8C42"/>
<stop offset="0.75" stop-color="#FFAD5A"/>
<stop offset="1" stop-color="#FFC971"/>
</linearGradient>
<linearGradient id="paint27_linear_49_178" x1="16.3687" y1="121.788" x2="785.422" y2="7287.64" gradientUnits="userSpaceOnUse">
<stop stop-color="#FF4800"/>
<stop offset="0.25" stop-color="#FF6B2B"/>
<stop offset="0.5" stop-color="#FF8C42"/>
<stop offset="0.75" stop-color="#FFAD5A"/>
<stop offset="1" stop-color="#FFC971"/>
</linearGradient>
<linearGradient id="paint28_linear_49_178" x1="54.7427" y1="81.0161" x2="614.938" y2="5458.96" gradientUnits="userSpaceOnUse">
<stop stop-color="#FF4800"/>
<stop offset="0.25" stop-color="#FF6B2B"/>
<stop offset="0.5" stop-color="#FF8C42"/>
<stop offset="0.75" stop-color="#FFAD5A"/>
<stop offset="1" stop-color="#FFC971"/>
</linearGradient>
<linearGradient id="paint29_linear_49_178" x1="108.467" y1="40.2437" x2="530.436" y2="3614.62" gradientUnits="userSpaceOnUse">
<stop stop-color="#FF4800"/>
<stop offset="0.25" stop-color="#FF6B2B"/>
<stop offset="0.5" stop-color="#FF8C42"/>
<stop offset="0.75" stop-color="#FFAD5A"/>
<stop offset="1" stop-color="#FFC971"/>
</linearGradient>
<linearGradient id="paint30_linear_49_178" x1="154.516" y1="14.5723" x2="416.223" y2="1788.06" gradientUnits="userSpaceOnUse">
<stop stop-color="#FF4800"/>
<stop offset="0.25" stop-color="#FF6B2B"/>
<stop offset="0.5" stop-color="#FF8C42"/>
<stop offset="0.75" stop-color="#FFAD5A"/>
<stop offset="1" stop-color="#FFC971"/>
</linearGradient>
<linearGradient id="paint31_linear_49_178" x1="16.3687" y1="212.393" x2="785.421" y2="7378.25" gradientUnits="userSpaceOnUse">
<stop stop-color="#FF4800"/>
<stop offset="0.25" stop-color="#FF6B2B"/>
<stop offset="0.5" stop-color="#FF8C42"/>
<stop offset="0.75" stop-color="#FFAD5A"/>
<stop offset="1" stop-color="#FFC971"/>
</linearGradient>
<linearGradient id="paint32_linear_49_178" x1="54.7427" y1="262.226" x2="614.938" y2="5640.17" gradientUnits="userSpaceOnUse">
<stop stop-color="#FF4800"/>
<stop offset="0.25" stop-color="#FF6B2B"/>
<stop offset="0.5" stop-color="#FF8C42"/>
<stop offset="0.75" stop-color="#FFAD5A"/>
<stop offset="1" stop-color="#FFC971"/>
</linearGradient>
<linearGradient id="paint33_linear_49_178" x1="108.467" y1="312.058" x2="530.434" y2="3886.43" gradientUnits="userSpaceOnUse">
<stop stop-color="#FF4800"/>
<stop offset="0.25" stop-color="#FF6B2B"/>
<stop offset="0.5" stop-color="#FF8C42"/>
<stop offset="0.75" stop-color="#FFAD5A"/>
<stop offset="1" stop-color="#FFC971"/>
</linearGradient>
<linearGradient id="paint34_linear_49_178" x1="154.516" y1="346.79" x2="416.224" y2="2120.27" gradientUnits="userSpaceOnUse">
<stop stop-color="#FF4800"/>
<stop offset="0.25" stop-color="#FF6B2B"/>
<stop offset="0.5" stop-color="#FF8C42"/>
<stop offset="0.75" stop-color="#FFAD5A"/>
<stop offset="1" stop-color="#FFC971"/>
</linearGradient>
<linearGradient id="paint35_linear_49_178" x1="182.145" y1="0.981445" x2="786.097" y2="614.889" gradientUnits="userSpaceOnUse">
<stop stop-color="#FF4800"/>
<stop offset="0.25" stop-color="#FF6B2B"/>
<stop offset="0.5" stop-color="#FF8C42"/>
<stop offset="0.75" stop-color="#FFAD5A"/>
<stop offset="1" stop-color="#FFC971"/>
</linearGradient>
<linearGradient id="paint36_linear_49_178" x1="182.145" y1="363.401" x2="786.099" y2="977.305" gradientUnits="userSpaceOnUse">
<stop stop-color="#FF4800"/>
<stop offset="0.25" stop-color="#FF6B2B"/>
<stop offset="0.5" stop-color="#FF8C42"/>
<stop offset="0.75" stop-color="#FFAD5A"/>
<stop offset="1" stop-color="#FFC971"/>
</linearGradient>
<clipPath id="clip0_49_178">
<rect width="370" height="370" fill="white"/>
</clipPath>
</defs>
</svg>
